<svg viewBox="0 0 200 200" xmlns="http://www.w3.org/2000/svg" xmlns:xlink="http://www.w3.org/1999/xlink"><linearGradient id="a" gradientUnits="userSpaceOnUse" x1="100" x2="100" y1="121.42" y2="78.58"><stop offset="0" stop-color="#52dbec"/><stop offset="1" stop-color="#00b9e6"/></linearGradient><linearGradient id="b" x1="100" x2="100" xlink:href="#a" y1="148.36" y2="51.64"/><linearGradient id="c" x1="99.11" x2="101.38" xlink:href="#a" y1="116.28" y2="74.83"/><path d="m100 83.58c30.18 0 49.44 9.73 49.44 16.42s-19.26 16.42-49.44 16.42-49.44-9.73-49.44-16.42 19.26-16.42 49.44-16.42m0-5c-30.07 0-54.44 9.59-54.44 21.42s24.37 21.42 54.44 21.42 54.44-9.59 54.44-21.42-24.37-21.42-54.44-21.42z" fill="url(#a)" opacity=".8"/><path d="m122.42 51.64v5a4.53 4.53 0 0 1 2.3.54c5.8 3.35 4.59 24.89-10.5 51-6 10.32-13.15 19.57-20.25 26-6.35 5.79-12.32 9.11-16.39 9.11a4.53 4.53 0 0 1 -2.3-.54c-2.92-1.69-4-7.94-2.7-16.31 1.55-10.33 6.23-22.66 13.2-34.72 6-10.32 13.15-19.57 20.25-26 6.35-5.79 12.32-9.11 16.39-9.11v-5m0 0c-11 0-28 15.22-41 37.65-15 26-18.92 51.94-8.67 57.86a9.44 9.44 0 0 0 4.8 1.21c11 0 28-15.22 41-37.65 15-26 18.92-51.94 8.67-57.86a9.44 9.44 0 0 0 -4.8-1.21z" fill="url(#b)" opacity=".8"/><path d="m77.58 51.64v5c4.07 0 10 3.32 16.39 9.11 7.1 6.47 14.29 15.72 20.25 26 7 12.06 11.65 24.39 13.2 34.72 1.26 8.37.22 14.62-2.7 16.31a4.53 4.53 0 0 1 -2.3.54c-4.07 0-10-3.32-16.39-9.11-7.1-6.47-14.29-15.72-20.25-26-7-12.06-11.65-24.39-13.2-34.72-1.26-8.37-.22-14.62 2.7-16.31a4.53 4.53 0 0 1 2.3-.54zm0 0a9.44 9.44 0 0 0 -4.8 1.21c-10.25 5.92-6.36 31.82 8.67 57.86 13 22.43 30 37.65 41 37.65a9.44 9.44 0 0 0 4.8-1.21c10.25-5.92 6.36-31.82-8.67-57.86-13-22.43-30-37.65-41-37.65z" fill="url(#b)" opacity=".8"/><circle cx="100" cy="100" fill="url(#c)" r="9.87"/></svg>